<svg id="Capa_1" data-name="Capa 1" xmlns="http://www.w3.org/2000/svg" viewBox="0 0 1000 1000"><defs><style>.cls-1{fill:#fff;}.cls-2{fill:#fac76c;}.cls-3{fill:#e7e8e9;}</style></defs><circle class="cls-1" cx="501.28" cy="491.21" r="77.01"/><path class="cls-2" d="M485,450q-1,2-3.74,7.4t-6.1,12.27q-3.37,6.9-6.68,14.51t-5.38,13.93a44.68,44.68,0,0,0-2.37,10.48q-.29,4.17,2.44,4.31h1.72a23.94,23.94,0,0,0,9.12-5.17,58.24,58.24,0,0,0,7.83-8.47,110.76,110.76,0,0,0,6.68-9.91q3.07-5.18,5.81-9.48a1.54,1.54,0,0,1,1.22-.79,2.14,2.14,0,0,1,1.44.36,2.44,2.44,0,0,1,.93,1.15,2,2,0,0,1-.28,1.72q-2.88,4.46-5.61,9.05c-1.81,3.06-3.71,6-5.67,8.9s-4.07,5.65-6.32,8.33a56.86,56.86,0,0,1-7.39,7.33c-.67.57-1.53,1.24-2.59,2a22.53,22.53,0,0,1-3.52,2.08,27,27,0,0,1-4.16,1.58,17.26,17.26,0,0,1-4.81.64,9.17,9.17,0,0,1-5.1-1.65,9.35,9.35,0,0,1-3.16-4.09,18.34,18.34,0,0,1-1.29-6,28.23,28.23,0,0,1,.5-7.11,85.41,85.41,0,0,1,3.74-15.44q2.58-7.53,6-14.93t7.18-14.72q3.79-7.32,7.54-14.79,2.43-5,4.73-10.13c1.53-3.39,3-6.72,4.38-10s2.61-6.36,3.67-9.33,1.91-5.7,2.58-8.19a4.86,4.86,0,0,1,3.88.22,15.93,15.93,0,0,1,4.59,2.73,13.91,13.91,0,0,1,3.45,4.23,5.56,5.56,0,0,1,.43,4.74,55.13,55.13,0,0,1-2.22,5.24c-1.11,2.35-2.37,5-3.81,8s-3,6.11-4.74,9.41S486.48,446.89,485,450Z"/><path class="cls-2" d="M521.28,540.39q6.6,3.3,13.21,7A98.65,98.65,0,0,0,550,554.28c.67.19.58,1-.29,2.29a14.4,14.4,0,0,1-3.8,3.8,17.6,17.6,0,0,1-5.82,2.64,7.91,7.91,0,0,1-6.46-1.14q-5.46-3.3-10-6.3t-8.76-5.44a129.73,129.73,0,0,1-8.55,10.81,54.53,54.53,0,0,1-9.62,8.59,44.41,44.41,0,0,1-11.49,5.72,46.16,46.16,0,0,1-13.86,2.22,48.54,48.54,0,0,1-8.25-.71,22.83,22.83,0,0,1-7.47-2.65,16.66,16.66,0,0,1-5.6-5.23,16.22,16.22,0,0,1-2.51-8.3,21.39,21.39,0,0,1,2.72-11.67,30,30,0,0,1,8.26-9.3,40.81,40.81,0,0,1,12.14-6.16,46,46,0,0,1,14.21-2.22q4.45,0,8,.29a53.42,53.42,0,0,1,6.61.93q3.09.64,5.89,1.5c1.87.57,3.8,1.19,5.81,1.86q3.17-6.45,5.89-12.91t5.6-12.49a55.5,55.5,0,0,1-9.91,8.18,16.93,16.93,0,0,1-10.19,3q-6.18-.29-9.55-2.94a16.34,16.34,0,0,1-5-6.25,21.29,21.29,0,0,1-1.79-7.47,30.22,30.22,0,0,1,.21-6.46,47.84,47.84,0,0,1,3.16-11.06,71,71,0,0,1,6.32-12,80.89,80.89,0,0,1,9-11.35,56.05,56.05,0,0,1,10.91-9,40.07,40.07,0,0,1,12.14-5.17,26.21,26.21,0,0,1,12.92.21,10.32,10.32,0,0,1,4.67,2.8,14.16,14.16,0,0,1,2.8,4.6,21.87,21.87,0,0,1,1.29,5.74,43.17,43.17,0,0,1,.14,6.11,1.94,1.94,0,0,1-.71,1.58,2.78,2.78,0,0,1-1.51.64,1.65,1.65,0,0,1-1.37-.5,2.35,2.35,0,0,1-.57-1.72c-.19-1-.36-2.18-.5-3.67a16.73,16.73,0,0,0-1-4.3,9.46,9.46,0,0,0-2.51-3.67,7.77,7.77,0,0,0-5-1.72,17.27,17.27,0,0,0-7.82,1.58,29.58,29.58,0,0,0-7.26,4.74,48,48,0,0,0-6.46,7,77.71,77.71,0,0,0-5.46,8.19,78.63,78.63,0,0,0-4.23,8.47,65.57,65.57,0,0,0-2.8,7.83,38,38,0,0,0-1.15,5.89,17.51,17.51,0,0,0,.29,6.39,7.35,7.35,0,0,0,3,4.52c1.53,1.06,3.93,1.2,7.18.43a12.36,12.36,0,0,0,4.74-2.58,59,59,0,0,0,5.6-5.1q2.88-2.94,5.67-6.39t5-6.46q2.29-5,4.31-10a29.74,29.74,0,0,0,2.29-8.69c1-.48,2.32-.38,4.1.28a19.45,19.45,0,0,1,5.1,2.95,16.79,16.79,0,0,1,3.95,4.45,5.35,5.35,0,0,1,.64,4.81Zm-41.93,31.2a39.06,39.06,0,0,0,15.43-10.2,81.75,81.75,0,0,0,11.42-15.94,55.74,55.74,0,0,0-10.05-3.52,52,52,0,0,0-11.06-1.36,50,50,0,0,0-11.06,1,42.1,42.1,0,0,0-10.77,3.59,25.14,25.14,0,0,0-8,6.18,12.54,12.54,0,0,0-3,8.76,11.42,11.42,0,0,0,3,8,15.92,15.92,0,0,0,7,4.16,24.92,24.92,0,0,0,8.76.93A31.6,31.6,0,0,0,479.35,571.59Z"/><path class="cls-3" d="M437.47,594.66a1.72,1.72,0,0,1-.45.75,2.28,2.28,0,0,1-.85.5,4,4,0,0,1-1.34.18l-9.6-.06.12-18h1.21l-.11,17,8.09.05a3.66,3.66,0,0,0,1.16-.14,1.55,1.55,0,0,0,.64-.38,1.22,1.22,0,0,0,.26-.55,4.34,4.34,0,0,0,.06-.61l.94.35A3.26,3.26,0,0,1,437.47,594.66Z"/><path class="cls-3" d="M449.85,596.19v-2.25a4.73,4.73,0,0,1-2,1.88,6.44,6.44,0,0,1-3,.64,6.85,6.85,0,0,1-2.68-.53,5.9,5.9,0,0,1-2-1.41,6.23,6.23,0,0,1-1.22-2.07,7,7,0,0,1-.42-2.52,8.86,8.86,0,0,1,.42-2.65,6.41,6.41,0,0,1,1.26-2.22,5.94,5.94,0,0,1,2.07-1.5,7,7,0,0,1,2.9-.55,6.36,6.36,0,0,1,2.71.61,4.45,4.45,0,0,1,1.94,1.72v-2h1.14L451,596.2Zm.06-8.81a2.48,2.48,0,0,0-.4-1.36,3.75,3.75,0,0,0-1-1.1,5.36,5.36,0,0,0-1.45-.74,5.73,5.73,0,0,0-1.62-.27,6.08,6.08,0,0,0-2.65.52,4.75,4.75,0,0,0-1.74,1.4,5.27,5.27,0,0,0-1,1.94,8.91,8.91,0,0,0-.3,2.15,7,7,0,0,0,.33,2.15,5.26,5.26,0,0,0,1,1.8,5.07,5.07,0,0,0,1.67,1.23,5.71,5.71,0,0,0,2.32.46,6.31,6.31,0,0,0,1.8-.25,4.87,4.87,0,0,0,1.55-.76,3.93,3.93,0,0,0,1.07-1.23,3.31,3.31,0,0,0,.4-1.61Z"/><path class="cls-3" d="M463.79,596.28l0-2.94a4.36,4.36,0,0,1-1.88,2.42,5.87,5.87,0,0,1-3.13.79,5,5,0,0,1-3.59-1.26,4.38,4.38,0,0,1-1.29-3.36l.06-8.56h1.13l-.05,8.25a4.05,4.05,0,0,0,1,2.9,4,4,0,0,0,3,1.12,4.68,4.68,0,0,0,2-.4,4.12,4.12,0,0,0,1.46-1.09,4.58,4.58,0,0,0,.89-1.59,6.11,6.11,0,0,0,.31-1.91l.05-7.22H465l-.09,12.85Z"/><path class="cls-3" d="M473.74,584.1a4.7,4.7,0,0,0-2,.4,4.31,4.31,0,0,0-1.48,1.1,5.08,5.08,0,0,0-.9,1.59,6.3,6.3,0,0,0-.31,1.9l0,7.23h-1.14l.09-12.85h1.13l0,3a4.38,4.38,0,0,1,1.88-2.43,5.65,5.65,0,0,1,3.1-.81h.26l.26,0Z"/><path class="cls-3" d="M484.34,596.42v-2.25a4.7,4.7,0,0,1-2,1.87,6.25,6.25,0,0,1-3,.64,6.47,6.47,0,0,1-2.68-.53,5.55,5.55,0,0,1-2-1.41,6,6,0,0,1-1.23-2.06,7.2,7.2,0,0,1-.41-2.52,8.37,8.37,0,0,1,.42-2.66,6.19,6.19,0,0,1,1.25-2.21,6,6,0,0,1,2.08-1.51,6.83,6.83,0,0,1,2.9-.54,6.43,6.43,0,0,1,2.7.6,4.44,4.44,0,0,1,2,1.73v-2h1.13l-.08,12.84Zm.05-8.82a2.41,2.41,0,0,0-.39-1.36,4.06,4.06,0,0,0-1.05-1.1,5.19,5.19,0,0,0-1.45-.73,5,5,0,0,0-1.61-.27,5.88,5.88,0,0,0-2.65.52,4.85,4.85,0,0,0-1.75,1.39,5.54,5.54,0,0,0-.95,2,8,8,0,0,0-.3,2.15,6.61,6.61,0,0,0,.32,2.14,5.19,5.19,0,0,0,1,1.8,4.72,4.72,0,0,0,1.67,1.23,5.53,5.53,0,0,0,2.31.47,6.38,6.38,0,0,0,1.81-.25,4.93,4.93,0,0,0,1.54-.76,3.81,3.81,0,0,0,1.07-1.23,3.36,3.36,0,0,0,.41-1.62Z"/><path class="cls-3" d="M514.21,596.74a2.67,2.67,0,0,1-1.33-.3,1.67,1.67,0,0,1-.7-.84,4.83,4.83,0,0,1-.29-1.37c0-.55-.06-1.19-.08-1.92a7.58,7.58,0,0,1-2.72,3.4,7.86,7.86,0,0,1-4.64,1.26,9,9,0,0,1-3.77-.78,8.36,8.36,0,0,1-2.77-2.07,8.78,8.78,0,0,1-1.69-3,10.86,10.86,0,0,1-.56-3.52,11.21,11.21,0,0,1,.62-3.64,9,9,0,0,1,1.77-3,8.44,8.44,0,0,1,2.88-2.07,10.05,10.05,0,0,1,6.7-.31,9,9,0,0,1,2.51,1.2,7.3,7.3,0,0,1,1.88,1.88,4.79,4.79,0,0,1,.82,2.48h-1.19a4.38,4.38,0,0,0-.77-2.08,6.09,6.09,0,0,0-1.59-1.57,8,8,0,0,0-2.11-1,8.11,8.11,0,0,0-2.32-.35,7.93,7.93,0,0,0-3.43.68,7.25,7.25,0,0,0-2.49,1.9,8.36,8.36,0,0,0-1.53,2.72,10.09,10.09,0,0,0-.07,6.24,8,8,0,0,0,1.44,2.67,7.2,7.2,0,0,0,2.38,1.87,7.1,7.1,0,0,0,3.27.72,7.64,7.64,0,0,0,2.79-.45,6.38,6.38,0,0,0,2.11-1.28,6.71,6.71,0,0,0,1.45-2,9.1,9.1,0,0,0,.78-2.48l-6.8,0v-1l8,.06,0,5.05a2.93,2.93,0,0,0,.16,1.08,1.3,1.3,0,0,0,.41.6,1.26,1.26,0,0,0,.59.26,5.14,5.14,0,0,0,.66.05Z"/><path class="cls-3" d="M528.09,590.29a7.64,7.64,0,0,1-.44,2.53,6.43,6.43,0,0,1-1.24,2.14,5.79,5.79,0,0,1-2,1.47,6.52,6.52,0,0,1-2.77.53,6.66,6.66,0,0,1-2.78-.57,5.8,5.8,0,0,1-2-1.49,6.19,6.19,0,0,1-1.2-2.16,7.92,7.92,0,0,1-.39-2.53,8.18,8.18,0,0,1,.42-2.53,6.4,6.4,0,0,1,1.23-2.14,6,6,0,0,1,2-1.48,6.44,6.44,0,0,1,2.79-.54,6.36,6.36,0,0,1,2.76.58,5.72,5.72,0,0,1,2,1.51,6.24,6.24,0,0,1,1.21,2.15A7.67,7.67,0,0,1,528.09,590.29Zm-1.14,0a6.81,6.81,0,0,0-.32-2.16,5.69,5.69,0,0,0-1-1.87,4.89,4.89,0,0,0-1.63-1.31,5.06,5.06,0,0,0-2.3-.52,5.22,5.22,0,0,0-2.33.49,5,5,0,0,0-1.66,1.29,5.35,5.35,0,0,0-1,1.85,7.37,7.37,0,0,0,0,4.33,5.64,5.64,0,0,0,1,1.87,4.87,4.87,0,0,0,1.65,1.32,5.18,5.18,0,0,0,2.32.5,5.1,5.1,0,0,0,2.31-.47,4.79,4.79,0,0,0,1.65-1.29,5.79,5.79,0,0,0,1-1.86A6.9,6.9,0,0,0,527,590.27Zm-6.39-7.71h-.81l3.48-3.6h1.4Z"/><path class="cls-3" d="M550.26,596.85l.06-8.25a4.08,4.08,0,0,0-1-2.9,3.93,3.93,0,0,0-3-1.12,4.7,4.7,0,0,0-2,.39,4.26,4.26,0,0,0-1.46,1.11,4.77,4.77,0,0,0-.89,1.59,6.25,6.25,0,0,0-.31,1.9l-.05,7.22h-1.13l.06-8.24a4.13,4.13,0,0,0-1-2.91,4,4,0,0,0-3-1.12,4.86,4.86,0,0,0-2,.4,4.27,4.27,0,0,0-1.47,1.1,4.76,4.76,0,0,0-.9,1.6,5.63,5.63,0,0,0-.31,1.89l0,7.23H530.5l.08-12.85h1.13l0,3a4.42,4.42,0,0,1,1.88-2.43,5.75,5.75,0,0,1,3.11-.81,5.22,5.22,0,0,1,3.25,1,4,4,0,0,1,1.55,2.64,4.55,4.55,0,0,1,1.8-2.68,5.55,5.55,0,0,1,3.29-.88,5,5,0,0,1,3.59,1.26,4.38,4.38,0,0,1,1.29,3.36l-.06,8.56Z"/><path class="cls-3" d="M564.14,596a6.16,6.16,0,0,1-4,1.24,6.27,6.27,0,0,1-2.67-.54,5.83,5.83,0,0,1-2-1.42,6,6,0,0,1-1.22-2.07,7.31,7.31,0,0,1-.4-2.49,8.69,8.69,0,0,1,.42-2.68,6.37,6.37,0,0,1,1.25-2.2,5.75,5.75,0,0,1,2.06-1.5,7.43,7.43,0,0,1,4.91-.23,5.79,5.79,0,0,1,1.68.86,4.43,4.43,0,0,1,1.21,1.37,4.72,4.72,0,0,1,.59,1.8l-10.94,3.62a5.83,5.83,0,0,0,.51,1.77,5.13,5.13,0,0,0,1,1.45,4.49,4.49,0,0,0,1.53,1,5.44,5.44,0,0,0,2,.38,5.66,5.66,0,0,0,1.77-.27,4.63,4.63,0,0,0,1.46-.77,4.13,4.13,0,0,0,1-1.22,4.33,4.33,0,0,0,.47-1.6H566A5,5,0,0,1,564.14,596Zm-.85-10.48a4.72,4.72,0,0,0-2.76-.82,5.58,5.58,0,0,0-2.45.47,4.8,4.8,0,0,0-1.7,1.29,5.57,5.57,0,0,0-1,1.86,7.48,7.48,0,0,0-.35,2.23v.42l9.78-3.22A3.75,3.75,0,0,0,563.29,585.49Z"/><path class="cls-3" d="M578.35,595.65a1.78,1.78,0,0,1-.43.72,2,2,0,0,1-.83.48,3.86,3.86,0,0,1-1.27.17l-8.68-.06v-1l9.4-10.87L568,585v-.9l9.95.06v1l-9.38,10.87,7,0a3.71,3.71,0,0,0,1.13-.14,1.39,1.39,0,0,0,.61-.38,1,1,0,0,0,.26-.51,2.78,2.78,0,0,0,.06-.58l.86.28A2.71,2.71,0,0,1,578.35,595.65Z"/><path class="cls-3" d="M449.57,607a6,6,0,0,1-.32,2,4.28,4.28,0,0,1-1,1.54,4.34,4.34,0,0,1-1.56,1,6,6,0,0,1-2.14.36h-1.37V602.1h1.84a4.88,4.88,0,0,1,2,.39,3.81,3.81,0,0,1,1.4,1,4.18,4.18,0,0,1,.81,1.55A6.94,6.94,0,0,1,449.57,607Zm-.66,0a6.35,6.35,0,0,0-.23-1.73,3.65,3.65,0,0,0-.71-1.37,3.28,3.28,0,0,0-1.26-.91,4.48,4.48,0,0,0-1.84-.34h-1v8.7h.75a4.74,4.74,0,0,0,1.85-.33,3.77,3.77,0,0,0,1.34-.92,4,4,0,0,0,.82-1.38A5.3,5.3,0,0,0,448.91,607Z"/><path class="cls-3" d="M451.77,602.36a.41.41,0,0,1-.17.35.6.6,0,0,1-.39.14.59.59,0,0,1-.38-.14.41.41,0,0,1-.17-.35.4.4,0,0,1,.17-.35.54.54,0,0,1,.38-.14.55.55,0,0,1,.39.14A.4.4,0,0,1,451.77,602.36Zm-.86,9.53v-7h.61v7Z"/><path class="cls-3" d="M458.62,610a1.67,1.67,0,0,1-.26.94,2.21,2.21,0,0,1-.68.61,3,3,0,0,1-.93.35,5.07,5.07,0,0,1-1,.11,3.9,3.9,0,0,1-2.3-.61,2.23,2.23,0,0,1-.84-1.93h.6a1.86,1.86,0,0,0,.68,1.58,3.07,3.07,0,0,0,1.88.51,4.29,4.29,0,0,0,.77-.08,2.81,2.81,0,0,0,.74-.26,1.61,1.61,0,0,0,.54-.46,1.26,1.26,0,0,0,0-1.38,1.62,1.62,0,0,0-.55-.44,3.65,3.65,0,0,0-.79-.27l-.94-.21-1-.22a3.86,3.86,0,0,1-.85-.32,1.74,1.74,0,0,1-.6-.54,1.53,1.53,0,0,1-.22-.88,1.47,1.47,0,0,1,.17-.66,1.8,1.8,0,0,1,.49-.59,2.69,2.69,0,0,1,.85-.41,4.13,4.13,0,0,1,1.19-.16,5.21,5.21,0,0,1,1.16.13,2.69,2.69,0,0,1,.89.4,1.73,1.73,0,0,1,.59.69,2.28,2.28,0,0,1,.21,1h-.58a1.54,1.54,0,0,0-.64-1.38,2.86,2.86,0,0,0-1.61-.43,3,3,0,0,0-1.14.18,1.86,1.86,0,0,0-.63.41,1,1,0,0,0-.27.46,1.54,1.54,0,0,0-.06.33,1,1,0,0,0,.28.75,2,2,0,0,0,.72.44,4.19,4.19,0,0,0,.91.25c.32.06.61.12.88.19l.85.23a2.91,2.91,0,0,1,.76.33,1.55,1.55,0,0,1,.53.52A1.43,1.43,0,0,1,458.62,610Z"/><path class="cls-3" d="M465.09,611.36a3.34,3.34,0,0,1-2.17.69,3.59,3.59,0,0,1-1.46-.29,3.09,3.09,0,0,1-1.74-1.89,3.76,3.76,0,0,1-.23-1.35,4.71,4.71,0,0,1,.22-1.47,3.54,3.54,0,0,1,.67-1.2,3.13,3.13,0,0,1,1.12-.82,3.82,3.82,0,0,1,1.57-.31,3.57,3.57,0,0,1,1.1.17,2.84,2.84,0,0,1,.92.46,2.35,2.35,0,0,1,.66.74,2.64,2.64,0,0,1,.33,1l-5.95,2a3.45,3.45,0,0,0,.29,1,2.77,2.77,0,0,0,.56.79,2.62,2.62,0,0,0,.83.53,3.19,3.19,0,0,0,2.08,0,2.52,2.52,0,0,0,.79-.43,2.18,2.18,0,0,0,.55-.66,2.25,2.25,0,0,0,.25-.88h.6A2.78,2.78,0,0,1,465.09,611.36Zm-.5-5.71a2.58,2.58,0,0,0-1.5-.44,3,3,0,0,0-1.34.27,2.59,2.59,0,0,0-.92.7,3.12,3.12,0,0,0-.54,1,3.8,3.8,0,0,0-.19,1.22v.23l5.32-1.79A2.06,2.06,0,0,0,464.59,605.65Z"/><path class="cls-3" d="M472.83,611.89v-4.5a2.2,2.2,0,0,0-.57-1.58,2.17,2.17,0,0,0-1.65-.6,2.59,2.59,0,0,0-1.11.23,2.31,2.31,0,0,0-.8.6,2.68,2.68,0,0,0-.49.87,3.28,3.28,0,0,0-.16,1v3.94h-.62v-7h.62v1.61a2.44,2.44,0,0,1,1-1.33,3.14,3.14,0,0,1,1.69-.45,2.76,2.76,0,0,1,2,.68,2.35,2.35,0,0,1,.72,1.82v4.67Zm-.35-8.23a1,1,0,0,1-.81.34,1.33,1.33,0,0,1-.54-.11l-.47-.26c-.15-.1-.3-.18-.46-.27a1,1,0,0,0-.46-.12.5.5,0,0,0-.27.08.64.64,0,0,0-.21.19,1,1,0,0,0-.15.25.65.65,0,0,0-.06.26h-.4a1.15,1.15,0,0,1,.08-.41,1.48,1.48,0,0,1,.23-.38,1.23,1.23,0,0,1,.35-.29.88.88,0,0,1,.42-.11,1.25,1.25,0,0,1,.52.13l.5.26.46.26a.9.9,0,0,0,.43.12.65.65,0,0,0,.52-.22.82.82,0,0,0,.2-.5h.41A1.31,1.31,0,0,1,472.48,603.66Z"/><path class="cls-3" d="M480.92,611.89v-1.23a2.53,2.53,0,0,1-1.07,1,3.46,3.46,0,0,1-1.62.36,3.55,3.55,0,0,1-1.46-.28,3.14,3.14,0,0,1-1.08-.76,3.54,3.54,0,0,1-.68-1.12,4.15,4.15,0,0,1-.23-1.37,4.63,4.63,0,0,1,.22-1.45,3.36,3.36,0,0,1,.68-1.21,3.13,3.13,0,0,1,1.12-.83,3.84,3.84,0,0,1,1.58-.31,3.51,3.51,0,0,1,1.48.32,2.53,2.53,0,0,1,1.06.93v-1.08h.62v7Zm0-4.81a1.3,1.3,0,0,0-.22-.73,2.17,2.17,0,0,0-.57-.6,2.71,2.71,0,0,0-.8-.39,2.67,2.67,0,0,0-.88-.15,3.27,3.27,0,0,0-1.44.29,2.65,2.65,0,0,0-.94.77,3,3,0,0,0-.52,1.07,4.69,4.69,0,0,0-.15,1.17,3.71,3.71,0,0,0,.18,1.16,2.67,2.67,0,0,0,1.46,1.65,3.13,3.13,0,0,0,1.27.24,3.52,3.52,0,0,0,1-.14,3,3,0,0,0,.84-.42,2.18,2.18,0,0,0,.58-.67,1.89,1.89,0,0,0,.21-.89Z"/><path class="cls-3" d="M489,611.89v-1.23a2.61,2.61,0,0,1-1.08,1,3.44,3.44,0,0,1-1.61.36,3.52,3.52,0,0,1-1.46-.28,3.14,3.14,0,0,1-1.08-.76,3.37,3.37,0,0,1-.68-1.12,3.9,3.9,0,0,1-.23-1.37,4.63,4.63,0,0,1,.22-1.45,3.34,3.34,0,0,1,.67-1.21,3.16,3.16,0,0,1,1.13-.83,3.79,3.79,0,0,1,1.57-.31A3.48,3.48,0,0,1,488,605,2.56,2.56,0,0,1,489,606V602.1h.61v9.79Zm0-4.81a1.38,1.38,0,0,0-.22-.73,2.07,2.07,0,0,0-.58-.6,2.65,2.65,0,0,0-.79-.39,2.71,2.71,0,0,0-.88-.15,3.27,3.27,0,0,0-1.44.29,2.69,2.69,0,0,0-.95.77,2.94,2.94,0,0,0-.51,1.07,4.29,4.29,0,0,0-.16,1.17,3.44,3.44,0,0,0,.19,1.16,2.62,2.62,0,0,0,.55,1,2.69,2.69,0,0,0,.91.67,3.08,3.08,0,0,0,1.26.24,3.64,3.64,0,0,0,1-.14,2.82,2.82,0,0,0,.83-.42,2.05,2.05,0,0,0,.58-.67,1.78,1.78,0,0,0,.22-.89Z"/><path class="cls-3" d="M498,608.39a4.24,4.24,0,0,1-.22,1.38,3.76,3.76,0,0,1-.67,1.17,3.21,3.21,0,0,1-1.1.81,4,4,0,0,1-3,0,3.21,3.21,0,0,1-1.1-.81,3.55,3.55,0,0,1-.66-1.17,4.44,4.44,0,0,1,0-2.76,3.55,3.55,0,0,1,.66-1.17A3.21,3.21,0,0,1,493,605a3.83,3.83,0,0,1,3,0,3.21,3.21,0,0,1,1.1.81,3.76,3.76,0,0,1,.67,1.17A4.24,4.24,0,0,1,498,608.39Zm-.61,0a3.89,3.89,0,0,0-.19-1.18,3,3,0,0,0-.54-1,2.78,2.78,0,0,0-.9-.72,2.71,2.71,0,0,0-1.25-.27,2.86,2.86,0,0,0-1.27.27,2.78,2.78,0,0,0-.9.72,3,3,0,0,0-.54,1,4.21,4.21,0,0,0-.17,1.18,4.26,4.26,0,0,0,.17,1.18,3,3,0,0,0,.54,1,2.66,2.66,0,0,0,.9.72,3,3,0,0,0,1.27.26,2.84,2.84,0,0,0,1.25-.26,2.66,2.66,0,0,0,.9-.72,3,3,0,0,0,.54-1A3.94,3.94,0,0,0,497.35,608.39Z"/><path class="cls-3" d="M502.47,605.21a2.59,2.59,0,0,0-1.11.23,2.51,2.51,0,0,0-.8.6,2.85,2.85,0,0,0-.48.87,3.28,3.28,0,0,0-.16,1v3.94h-.62v-7h.62v1.61a2.4,2.4,0,0,1,1-1.33,3.11,3.11,0,0,1,1.69-.45h.14l.14,0Z"/><path class="cls-3" d="M508.29,611.89v-1.23a2.53,2.53,0,0,1-1.07,1,3.46,3.46,0,0,1-1.62.36,3.55,3.55,0,0,1-1.46-.28,3.14,3.14,0,0,1-1.08-.76,3.34,3.34,0,0,1-.67-1.12,3.91,3.91,0,0,1-.24-1.37,4.63,4.63,0,0,1,.22-1.45,3.36,3.36,0,0,1,.68-1.21,3.13,3.13,0,0,1,1.12-.83,3.84,3.84,0,0,1,1.58-.31,3.51,3.51,0,0,1,1.48.32,2.53,2.53,0,0,1,1.06.93v-1.08h.62v7Zm0-4.81a1.3,1.3,0,0,0-.22-.73,2.17,2.17,0,0,0-.57-.6,2.71,2.71,0,0,0-.8-.39,2.67,2.67,0,0,0-.88-.15,3.3,3.3,0,0,0-1.44.29,2.65,2.65,0,0,0-.94.77,3,3,0,0,0-.52,1.07,4.69,4.69,0,0,0-.15,1.17,3.71,3.71,0,0,0,.18,1.16,2.67,2.67,0,0,0,1.46,1.65,3.13,3.13,0,0,0,1.27.24,3.52,3.52,0,0,0,1-.14,3,3,0,0,0,.84-.42,2.18,2.18,0,0,0,.58-.67,1.89,1.89,0,0,0,.21-.89Z"/><path class="cls-3" d="M524.57,612a1.47,1.47,0,0,1-.73-.15,1,1,0,0,1-.38-.46,2.46,2.46,0,0,1-.16-.75c0-.29,0-.64,0-1a4.22,4.22,0,0,1-1.47,1.86,4.3,4.3,0,0,1-2.53.71,4.83,4.83,0,0,1-2.06-.42,4.56,4.56,0,0,1-1.51-1.11,4.88,4.88,0,0,1-.93-1.61,6,6,0,0,1,0-3.9,4.66,4.66,0,0,1,1-1.65,4.5,4.5,0,0,1,1.56-1.14,5.14,5.14,0,0,1,2.14-.42,5.31,5.31,0,0,1,1.51.22,4.94,4.94,0,0,1,1.37.65,3.85,3.85,0,0,1,1,1,2.57,2.57,0,0,1,.46,1.34h-.65a2.37,2.37,0,0,0-.43-1.12,3.06,3.06,0,0,0-.87-.85,4.16,4.16,0,0,0-1.15-.53,4.3,4.3,0,0,0-1.27-.19,4.24,4.24,0,0,0-1.86.39,4,4,0,0,0-1.35,1,4.54,4.54,0,0,0-.83,1.49,5.6,5.6,0,0,0-.28,1.73,5.26,5.26,0,0,0,.27,1.67,4.17,4.17,0,0,0,.79,1.45,3.88,3.88,0,0,0,3.09,1.39,4.29,4.29,0,0,0,1.52-.25,3.67,3.67,0,0,0,1.14-.71,3.56,3.56,0,0,0,.78-1.08,5,5,0,0,0,.42-1.35h-3.7v-.55h4.38v2.76a1.8,1.8,0,0,0,.08.58.77.77,0,0,0,.23.33.75.75,0,0,0,.33.14,2.17,2.17,0,0,0,.36,0Z"/><path class="cls-3" d="M528.54,605.21a2.56,2.56,0,0,0-1.11.23,2.31,2.31,0,0,0-.8.6,2.68,2.68,0,0,0-.49.87,3.28,3.28,0,0,0-.16,1v3.94h-.62v-7H526v1.61a2.44,2.44,0,0,1,1-1.33,3.14,3.14,0,0,1,1.69-.45h.14l.14,0Z"/><path class="cls-3" d="M534.35,611.89v-1.23a2.53,2.53,0,0,1-1.07,1,3.44,3.44,0,0,1-1.61.36,3.6,3.6,0,0,1-1.47-.28,3.16,3.16,0,0,1-1.75-1.88,3.91,3.91,0,0,1-.24-1.37,4.94,4.94,0,0,1,.22-1.45,3.51,3.51,0,0,1,.68-1.21,3.22,3.22,0,0,1,1.12-.83,3.87,3.87,0,0,1,1.58-.31,3.51,3.51,0,0,1,1.48.32,2.53,2.53,0,0,1,1.06.93v-1.08H535v7Zm0-4.81a1.3,1.3,0,0,0-.22-.73,1.91,1.91,0,0,0-.57-.6,2.65,2.65,0,0,0-.79-.39,2.76,2.76,0,0,0-.88-.15,3.27,3.27,0,0,0-1.44.29,2.6,2.6,0,0,0-1,.77,3.13,3.13,0,0,0-.52,1.07,4.69,4.69,0,0,0-.15,1.17,3.71,3.71,0,0,0,.18,1.16,2.79,2.79,0,0,0,.56,1,2.6,2.6,0,0,0,.91.67,3.08,3.08,0,0,0,1.26.24,3.52,3.52,0,0,0,1-.14,2.76,2.76,0,0,0,.84-.42,2.05,2.05,0,0,0,.58-.67,1.89,1.89,0,0,0,.21-.89Zm-3.48-2.87h-.44l1.88-2h.77Z"/><path class="cls-3" d="M538.57,602.42h-.4l-.36,0a.7.7,0,0,0-.32.13.8.8,0,0,0-.23.32,1.61,1.61,0,0,0-.08.59v1.41H538v.49h-.79v6.51h-.62v-6.51h-.8v-.47h.8v-1.57a1.81,1.81,0,0,1,.11-.7,1,1,0,0,1,.31-.43,1.08,1.08,0,0,1,.44-.22,1.93,1.93,0,0,1,.55-.07l.52,0,.33,0v.47A1.11,1.11,0,0,0,538.57,602.42Z"/><path class="cls-3" d="M541,602.36a.44.44,0,0,1-.17.35.61.61,0,0,1-.78,0,.44.44,0,0,1-.17-.35.43.43,0,0,1,.17-.35.61.61,0,0,1,.78,0A.43.43,0,0,1,541,602.36Zm-.87,9.53v-7h.62v7Z"/><path class="cls-3" d="M547.75,611.36a3.38,3.38,0,0,1-2.17.69,3.52,3.52,0,0,1-1.46-.29A3.14,3.14,0,0,1,543,611a3.41,3.41,0,0,1-.68-1.13,3.76,3.76,0,0,1-.23-1.35,4.71,4.71,0,0,1,.22-1.47,3.74,3.74,0,0,1,.68-1.2,3.22,3.22,0,0,1,1.12-.82,3.87,3.87,0,0,1,1.58-.31,3.62,3.62,0,0,1,1.1.17,3,3,0,0,1,.92.47,2.6,2.6,0,0,1,.66.74,2.63,2.63,0,0,1,.33,1h-.6a2.11,2.11,0,0,0-.8-1.39,2.6,2.6,0,0,0-1.6-.49,3.14,3.14,0,0,0-1.36.27,2.69,2.69,0,0,0-.92.73,3.08,3.08,0,0,0-.54,1,4.29,4.29,0,0,0-.18,1.25,3.69,3.69,0,0,0,.18,1.15,2.84,2.84,0,0,0,.54,1,2.67,2.67,0,0,0,.88.67,2.86,2.86,0,0,0,1.24.25,3,3,0,0,0,1-.15,2.42,2.42,0,0,0,.79-.43,2.21,2.21,0,0,0,.56-.66,2.44,2.44,0,0,0,.25-.88h.6A2.78,2.78,0,0,1,547.75,611.36Z"/><path class="cls-3" d="M556,611.89v-1.23a2.61,2.61,0,0,1-1.08,1,3.44,3.44,0,0,1-1.61.36,3.52,3.52,0,0,1-1.46-.28,3.14,3.14,0,0,1-1.08-.76,3.37,3.37,0,0,1-.68-1.12,3.91,3.91,0,0,1-.24-1.37,4.94,4.94,0,0,1,.22-1.45,3.51,3.51,0,0,1,.68-1.21,3.22,3.22,0,0,1,1.12-.83,3.87,3.87,0,0,1,1.58-.31,3.51,3.51,0,0,1,1.48.32A2.56,2.56,0,0,1,556,606v-1.08h.61v7Zm0-4.81a1.38,1.38,0,0,0-.22-.73,2.07,2.07,0,0,0-.58-.6,2.65,2.65,0,0,0-.79-.39,2.71,2.71,0,0,0-.88-.15,3.27,3.27,0,0,0-1.44.29,2.69,2.69,0,0,0-.95.77,2.94,2.94,0,0,0-.51,1.07,4.29,4.29,0,0,0-.16,1.17,3.44,3.44,0,0,0,.19,1.16,2.67,2.67,0,0,0,1.46,1.65,3.08,3.08,0,0,0,1.26.24,3.52,3.52,0,0,0,1-.14,2.76,2.76,0,0,0,.84-.42,2.05,2.05,0,0,0,.58-.67,1.89,1.89,0,0,0,.22-.89Z"/></svg>